Note: This torrent contains both a DVD ISO and an MP4 Video of the concert so I suggest you select whichever you prefer. The MP4@720p has the superior video quality.

BBC Proms 2011, Number 59
Recorded on 29 August
Broadcast on BBC2 on 3 September
Thanks to GringoLoco & THE BBC :D

A celebration of the Golden Age of Hollywood film musicals featuring Annalene Beechey, Charles Castronovo, Matthew Ford, Sarah Fox, Caroline O'Connor, Clare Teal, the Maida Vale Singers, John Wilson Orchestra and John Wilson (conductor).

The appearances of John Wilson and his hand-picked, high-octane orchestra have been among the most sensational Proms events of recent years.

Joined by a formidable line-up of today's vocal stars, they give what one critic has described as 'the auditory equivalent of a steam-clean' to another cache of show-stoppers.

'Hooray for Hollywood' takes us from the dawn of the talkies and the birth of the movie musical through to the 1960s. An extended sequence pays special tribute to the RKO films of Fred Astaire and Ginger Rogers, who was born 100 years ago.

****************************************************

Format: DVD ISO PAL 16:9
Runtime: 1:59

Video
ID                               : 224 (0xE0)
Format                           : MPEG Video
Format version                   : Version 2
Format profile                   : Main@Main
Format settings, BVOP            : Yes
Format settings, Matrix          : Default
Bit rate mode                    : Variable
Bit rate                         : 3 501 Kbps
Nominal bit rate                 : 9 544 Kbps
Width                            : 720 pixels
Height                           : 576 pixels
Display aspect ratio             : 16:9
Frame rate                       : 25.000 fps
Standard                         : PAL
Color space                      : YUV
Chroma subsampling               : 4:2:0
Bit depth                        : 8 bits
Scan type                        : Interlaced
Scan order                       : Top Field First
Compression mode                 : Lossy
Bits/(Pixel*Frame)               : 0.338
Audio
ID                               : 192 (0xC0)
Format                           : MPEG Audio
Format version                   : Version 1
Format profile                   : Layer 2
Bit rate mode                    : Constant
Bit rate                         : 256 Kbps
Channel(s)                       : 2 channels
Sampling rate                    : 48.0 KHz
Compression mode                 : Lossy

***********************************************

Format: MP4 720p
Runtime: 1:59

Video
ID                               : 1
Format                           : AVC
Format/Info                      : Advanced Video Codec
Format profile                   : High@L4.1
Format settings, CABAC           : Yes
Format settings, ReFrames        : 6 frames
Codec ID                         : avc1
Codec ID/Info                    : Advanced Video Coding
Duration                         : 1h 58mn
Bit rate mode                    : Variable
Bit rate                         : 2 634 Kbps
Maximum bit rate                 : 3 500 Kbps
Width                            : 1 280 pixels
Height                           : 720 pixels
Display aspect ratio             : 16:9
Frame rate mode                  : Constant
Frame rate                       : 25.000 fps
Standard                         : PAL
Color space                      : YUV
Chroma subsampling               : 4:2:0
Bit depth                        : 8 bits
Scan type                        : Progressive
Bits/(Pixel*Frame)               : 0.114
Stream size                      : 2.19 GiB (96%)

Audio
ID                               : 2
Format                           : AAC
Format/Info                      : Advanced Audio Codec
Format profile                   : HE-AAC / LC
Codec ID                         : 40
Duration                         : 1h 58mn
Bit rate mode                    : Variable
Bit rate                         : 96.0 Kbps
Channel(s)                       : 2 channels
Channel positions                : Front: L R
Sampling rate                    : 48.0 KHz / 24.0 KHz
Compression mode                 : Lossy
Stream size                      : 80.5 MiB (3%) 
